<svg width="50" height="50" viewBox="0 0 50 50" fill="none" xmlns="http://www.w3.org/2000/svg">
<rect width="50" height="50" rx="25" fill="black"/>
<path d="M22.364 38L26.874 12.375H44.012L41.88 18.935H33.475L32.901 22.379H40.691L39.625 28.324H31.835L31.302 31.44H40.855L39.707 38H22.364ZM25.275 14.22L7.932 12.375H25.603L25.275 14.22ZM24.619 18.156L7.235 16.311H24.906L24.619 18.156ZM23.922 22.092L6.538 20.247H24.25L23.922 22.092ZM23.225 26.028L5.841 24.183H23.553L23.225 26.028ZM22.528 29.964L5.144 28.119H22.856L22.528 29.964ZM21.831 33.9L4.447 32.055H22.159L21.831 33.9ZM21.134 37.877L3.75 36.032H21.462L21.134 37.877Z" fill="#A80000"/>
<ellipse cx="35.5608" cy="39" rx="2.85381" ry="3" fill="white"/>
<ellipse cx="27.8538" cy="39" rx="2.85381" ry="3" fill="white"/>
</svg>
