<svg width="62" height="66" viewBox="0 0 62 66" fill="none" xmlns="http://www.w3.org/2000/svg">
<path opacity="0.3" d="M29 66C31.7614 66 34 64.8807 34 63.5C34 62.1193 31.7614 61 29 61C26.2386 61 24 62.1193 24 63.5C24 64.8807 26.2386 66 29 66Z" fill="black"/>
<path fill-rule="evenodd" clip-rule="evenodd" d="M29 0C40.598 0 50 9.40202 50 21C50 31.9234 41.6599 40.8989 31 41.906V62C31 63.1046 30.1046 64 29 64C27.8954 64 27 63.1046 27 62V41.906C16.3401 40.8989 8 31.9234 8 21C8 9.40202 17.402 0 29 0Z" fill="#A80000"/>
<path d="M46 21C46 11.6112 38.3888 4 29 4C19.6112 4 12 11.6112 12 21C12 30.3888 19.6112 38 29 38C38.3888 38 46 30.3888 46 21Z" fill="black"/>
<path d="M27.0302 28L29.7802 12.375H40.2302L38.9302 16.375H33.8052L33.4552 18.475H38.2052L37.5552 22.1H32.8052L32.4802 24H38.3052L37.6052 28H27.0302ZM28.8052 13.5L18.2302 12.375H29.0052L28.8052 13.5ZM28.4052 15.9L17.8052 14.775H28.5802L28.4052 15.9ZM27.9802 18.3L17.3802 17.175H28.1802L27.9802 18.3ZM27.5552 20.7L16.9552 19.575H27.7552L27.5552 20.7ZM27.1302 23.1L16.5302 21.975H27.3302L27.1302 23.1ZM26.7052 25.5L16.1052 24.375H26.9052L26.7052 25.5ZM26.2802 27.925L15.6802 26.8H26.4802L26.2802 27.925Z" fill="#A80000"/>
</svg>
